<svg width="1200" height="720" viewBox="0 0 1200 720" fill="none" xmlns="http://www.w3.org/2000/svg" role="img" aria-labelledby="title desc">
  <title id="title">SyncData preview card</title>
  <desc id="desc">Stylized preview showing synchronized folders and a terminal command for the SyncData project.</desc>
  <defs>
    <linearGradient id="bg" x1="94" y1="70" x2="1050" y2="664" gradientUnits="userSpaceOnUse">
      <stop stop-color="#0A1520"/>
      <stop offset="1" stop-color="#06090D"/>
    </linearGradient>
    <linearGradient id="panel" x1="125" y1="102" x2="1044" y2="612" gradientUnits="userSpaceOnUse">
      <stop stop-color="#101C29"/>
      <stop offset="1" stop-color="#0A1119"/>
    </linearGradient>
    <linearGradient id="line" x1="302" y1="320" x2="898" y2="320" gradientUnits="userSpaceOnUse">
      <stop stop-color="#70F5FF"/>
      <stop offset="1" stop-color="#FF5292"/>
    </linearGradient>
  </defs>
  <rect width="1200" height="720" rx="36" fill="#04070B"/>
  <rect width="1200" height="720" fill="url(#bg)"/>
  <rect x="92" y="72" width="1016" height="576" rx="32" fill="url(#panel)" stroke="#1E3847" stroke-width="2"/>
  <rect x="128" y="106" width="208" height="42" rx="21" fill="#0C1723" stroke="#274454"/>
  <text x="154" y="133" fill="#FFE082" font-family="IBM Plex Mono, monospace" font-size="20" letter-spacing="2">SYNCDATA // .NET 8</text>

  <rect x="136" y="194" width="330" height="254" rx="28" fill="#0D1A26" stroke="#1E3847"/>
  <rect x="734" y="194" width="330" height="254" rx="28" fill="#0D1A26" stroke="#1E3847"/>
  <rect x="172" y="240" width="110" height="92" rx="20" fill="#173041"/>
  <path d="M172 274H282" stroke="#70F5FF" stroke-width="12" stroke-linecap="round"/>
  <path d="M194 332H342" stroke="#9DB1C4" stroke-opacity="0.42" stroke-width="10" stroke-linecap="round"/>
  <rect x="232" y="276" width="140" height="88" rx="18" fill="#102433" stroke="#2A4C5B"/>
  <text x="171" y="390" fill="#F4F7FB" font-family="IBM Plex Sans, sans-serif" font-size="34" font-weight="600">Source</text>
  <text x="171" y="426" fill="#95A6BC" font-family="IBM Plex Sans, sans-serif" font-size="24">Local file set</text>

  <rect x="770" y="240" width="110" height="92" rx="20" fill="#311428"/>
  <path d="M770 274H880" stroke="#FF5292" stroke-width="12" stroke-linecap="round"/>
  <path d="M792 332H942" stroke="#9DB1C4" stroke-opacity="0.42" stroke-width="10" stroke-linecap="round"/>
  <rect x="830" y="276" width="140" height="88" rx="18" fill="#1A2433" stroke="#364B5C"/>
  <text x="769" y="390" fill="#F4F7FB" font-family="IBM Plex Sans, sans-serif" font-size="34" font-weight="600">Target</text>
  <text x="769" y="426" fill="#95A6BC" font-family="IBM Plex Sans, sans-serif" font-size="24">Mirror directory</text>

  <path d="M466 308H734" stroke="url(#line)" stroke-width="12" stroke-linecap="round" stroke-dasharray="14 18"/>
  <path d="M698 272L746 308L698 344" stroke="#70F5FF" stroke-width="14" stroke-linecap="round" stroke-linejoin="round"/>
  <path d="M502 344L454 308L502 272" stroke="#FF5292" stroke-width="14" stroke-linecap="round" stroke-linejoin="round"/>

  <rect x="136" y="492" width="928" height="110" rx="24" fill="#09121B" stroke="#1E3847"/>
  <circle cx="174" cy="528" r="8" fill="#FF7B72"/>
  <circle cx="204" cy="528" r="8" fill="#FFE082"/>
  <circle cx="234" cy="528" r="8" fill="#70F5FF"/>
  <text x="168" y="569" fill="#70F5FF" font-family="IBM Plex Mono, monospace" font-size="24">dotnet run --project SyncData/SyncData.csproj ./source ./target -verbose -preserve</text>
  <text x="168" y="601" fill="#95A6BC" font-family="IBM Plex Sans, sans-serif" font-size="22">Bidirectional sync, logging and permission-aware transfers.</text>
</svg>